<svg width="68" height="50" viewBox="0 0 68 50" fill="none" xmlns="http://www.w3.org/2000/svg">
<path fill-rule="evenodd" clip-rule="evenodd" d="M20.8751 0.102778C20.0831 0.297627 19.0386 0.875229 18.3798 1.48265C17.8261 1.99285 16.8248 3.6942 16.8248 4.12448C16.8248 4.26881 15.7366 4.31143 11.2081 4.34452L5.59135 4.3855L4.68179 4.81646C3.41616 5.41598 2.6275 6.18802 2.01504 7.4271L1.50647 8.45581L1.46753 16.9405L1.42859 25.4252L1.76777 25.7644C2.21479 26.2114 2.83855 26.2135 3.28272 25.7692L3.617 25.435V17.3769C3.617 11.4483 3.6607 9.1708 3.78257 8.7585C4.00356 8.01056 5.13153 6.88259 5.87947 6.6616C6.27598 6.5445 7.93893 6.49602 11.5643 6.49602H16.6886V8.885C16.6886 11.2401 16.6934 11.2789 17.0229 11.6083C17.2335 11.819 17.5127 11.9425 17.7779 11.9425C18.0432 11.9425 18.3223 11.819 18.5329 11.6083L18.8672 11.2741V8.11786C18.8672 6.03784 18.9237 4.77071 19.0328 4.4013C19.1371 4.04823 19.452 3.58732 19.8838 3.15541C20.8209 2.21834 21.1675 2.13882 24.3137 2.13882C25.9756 2.13882 27.1428 2.19955 27.4977 2.30439C28.2457 2.52539 29.3737 3.65336 29.5947 4.4013C29.8319 5.20398 29.8319 23.0383 29.5947 23.841C29.3737 24.5889 28.2457 25.7169 27.4977 25.9379C26.7393 26.162 21.8881 26.162 21.1297 25.9379C20.3818 25.7169 19.2538 24.5889 19.0328 23.841C18.9183 23.4535 18.8672 21.9704 18.8672 19.0351V14.7896L18.5329 14.4554C18.0874 14.0098 17.4651 14.013 17.0147 14.4634L16.6724 14.8058L16.7145 19.4674L16.7567 24.1291L17.1876 25.0387C17.7873 26.3046 18.5592 27.0929 19.7986 27.7054L20.8274 28.214H24.3137H27.8L28.8289 27.7054C30.0682 27.0929 30.8401 26.3046 31.4398 25.0387L31.8708 24.1291V14.1211V4.11318L31.4398 3.20361C30.8404 1.93825 30.0682 1.14933 28.8296 0.536865L27.8011 0.0282977L24.5937 0.00256362C22.8295 -0.0114611 21.1562 0.0334715 20.8751 0.102778ZM34.4606 4.64272C34.0093 5.09396 34.0056 5.71581 34.4517 6.16175L34.7859 6.49602H38.4868C40.9294 6.49602 42.3692 6.55049 42.722 6.65615C43.3934 6.85726 44.3521 7.69099 44.6869 8.36472C44.9319 8.8579 44.9451 9.63457 45.0104 27.4057L45.0785 45.9325L45.5642 46.911L46.05 47.8895H26.2449C11.0933 47.8895 6.30825 47.8505 5.87947 47.7239C5.13153 47.5029 4.00356 46.3749 3.78257 45.627C3.6607 45.2147 3.617 42.9372 3.617 37.0086V28.9505L3.28272 28.6163C2.83855 28.172 2.21479 28.1741 1.76777 28.6211L1.42859 28.9603L1.46753 37.445L1.50647 45.9297L2.01504 46.9584C2.6275 48.1975 3.41616 48.9695 4.68179 49.569L5.59135 50H28.6709H51.7505L52.6601 49.569C53.8914 48.9857 54.7085 48.1991 55.2894 47.0382C55.5522 46.5127 55.7673 45.9991 55.7673 45.8969C55.7673 45.7453 56.3228 45.7109 58.769 45.7109H61.7708L62.105 45.3766C62.5472 44.9345 62.5472 44.3087 62.105 43.8665C61.7828 43.5443 61.7043 43.5323 59.9076 43.5323H58.0443L58.1146 42.2985C58.1752 41.2363 58.2532 40.9267 58.6761 40.0712C59.6038 38.194 61.2217 37.1524 63.4028 37.0279L64.6179 36.9587V41.0006V45.0424L64.9521 45.3766C65.3943 45.8189 66.0201 45.8189 66.4622 45.3766L66.7965 45.0424V31.55V18.0575L66.4622 17.7233C66.1716 17.4326 66.0048 17.389 65.1835 17.389C64.3157 17.389 64.2332 17.3641 64.1681 17.0827C64.1292 16.9141 63.9011 15.6121 63.6615 14.1892C63.4217 12.7663 63.1398 11.4653 63.035 11.2979C62.9301 11.1306 62.6948 10.9562 62.5121 10.9103C62.3294 10.8644 60.7686 11.0779 59.0435 11.3847C57.3186 11.6916 55.8758 11.9425 55.8373 11.9425C55.7988 11.9425 55.7673 11.8588 55.7673 11.7565C55.7673 11.6543 55.5522 11.1407 55.2894 10.6152C54.7085 9.4543 53.8914 8.66768 52.6601 8.08436C51.7561 7.65599 51.735 7.65314 49.2247 7.60711L46.699 7.56068L46.3804 6.96007C45.9421 6.13411 45.0279 5.32911 43.9457 4.81646L43.0361 4.3855L38.9199 4.34248L34.8038 4.29945L34.4606 4.64272ZM8.30848 9.00891L7.9742 9.34305V27.1928V45.0424L8.30848 45.3766C8.7506 45.8189 9.3764 45.8189 9.81852 45.3766L10.1528 45.0424V27.1928V9.34305L9.81852 9.00891C9.60788 8.79813 9.32875 8.67463 9.0635 8.67463C8.79826 8.67463 8.51912 8.79813 8.30848 9.00891ZM38.8089 9.00891L38.4746 9.34305V27.1928V45.0424L38.8089 45.3766C39.251 45.8189 39.8768 45.8189 40.319 45.3766L40.6532 45.0424V27.1928V9.34305L40.319 9.00891C40.1083 8.79813 39.8292 8.67463 39.5639 8.67463C39.2987 8.67463 39.0196 8.79813 38.8089 9.00891ZM51.4624 9.9295C52.1328 10.1276 53.3613 11.2883 53.5045 11.8589C53.5581 12.0724 53.5762 12.2727 53.5448 12.3042C53.4919 12.357 47.5338 13.4403 47.2957 13.4403C47.237 13.4403 47.189 12.6131 47.189 11.6021V9.76393H49.0455C50.1051 9.76393 51.1425 9.83501 51.4624 9.9295ZM61.6149 15.1424C61.7789 16.1159 61.9438 17.0196 61.9811 17.1508C62.0445 17.3727 61.8348 17.389 58.9117 17.389H55.7742L55.5797 17.0128C55.3455 16.5598 54.9811 15.2973 54.9238 14.7394L54.8822 14.3367L58.014 13.7766C59.7364 13.4686 61.1841 13.2517 61.2312 13.2945C61.2782 13.3372 61.4509 14.1688 61.6149 15.1424ZM52.9318 15.8572C53.054 16.4375 53.1971 17.0196 53.2498 17.1508C53.3392 17.3735 53.1447 17.389 50.2673 17.389H47.189V16.5358V15.6828L49.6059 15.2574C52.9967 14.6607 52.6674 14.6014 52.9318 15.8572ZM23.2244 17.567C22.5561 17.7776 21.4163 18.9579 21.2114 19.6515C20.8342 20.9282 21.1001 21.946 22.0624 22.9083C23.456 24.3019 25.3791 24.2722 26.6692 22.8372C27.9354 21.4288 27.8956 19.7362 26.565 18.4056C25.6069 17.4476 24.4917 17.1676 23.2244 17.567ZM25.0687 19.9019C25.7442 20.5773 25.2656 21.7462 24.3137 21.7462C23.754 21.7462 23.2244 21.2167 23.2244 20.6569C23.2244 20.0972 23.754 19.5676 24.3137 19.5676C24.579 19.5676 24.8581 19.6911 25.0687 19.9019ZM55.9035 20.4276C55.9035 22.5617 56.6782 24.5174 58.0867 25.9391C59.5666 27.4329 61.1239 28.1234 63.2903 28.2464L64.6179 28.3217V31.5697V34.8179H63.7579C60.6881 34.8179 57.9867 36.4615 56.7208 39.0996C56.1439 40.3018 55.9035 41.3527 55.9035 42.6723V43.5323H51.5463H47.189V40.7561V37.98L47.6561 37.8923C48.571 37.7207 49.9775 36.8912 50.7797 36.0503C53.2187 33.4931 53.2187 29.6068 50.7797 27.0496C49.9775 26.2087 48.571 25.3792 47.6561 25.2076L47.189 25.1199V22.3439V19.5676H51.5463H55.9035V20.4276ZM64.6179 22.8545V26.1412L63.3841 26.0709C62.3219 26.0103 62.0123 25.9323 61.1567 25.5094C59.2796 24.5817 58.238 22.9638 58.1135 20.7828L58.0443 19.5676H61.331H64.6179V22.8545ZM48.6965 28.0857C49.2433 28.4633 49.591 28.8951 50.0639 29.7841C50.5248 30.6506 50.522 32.4287 50.0583 33.3158C49.4285 34.5206 48.8271 35.0933 47.6997 35.5623L47.189 35.7747V31.55V27.3252L47.6997 27.5376C47.9806 27.6545 48.4291 27.9011 48.6965 28.0857ZM53.4525 45.7858C53.4525 45.9855 53.027 46.6351 52.6817 46.9623C51.4646 48.1161 49.6614 48.1762 48.4099 47.105C47.9409 46.7036 47.4614 46.0366 47.4614 45.7858C47.4614 45.7445 48.8094 45.7109 50.457 45.7109C52.1045 45.7109 53.4525 45.7445 53.4525 45.7858Z" fill="#F95633"/>
</svg>
