<svg width="50" height="50" viewBox="0 0 50 50" fill="none" xmlns="http://www.w3.org/2000/svg">
<path fill-rule="evenodd" clip-rule="evenodd" d="M7.17049 0.175638C6.86585 0.273044 6.46977 0.443992 6.29031 0.555579C6.11085 0.667067 4.88105 1.85021 3.55746 3.18484C0.898244 5.86585 0.68622 6.16344 0.226278 7.86061C-0.0535207 8.89334 -0.0782635 11.3048 0.176792 12.692C1.40024 19.3463 6.47006 27.643 13.9779 35.2774C20.892 42.3082 28.6409 47.4304 35.2343 49.3285C37.1169 49.8705 38.0409 50.0063 39.802 49.9998C41.5914 49.9932 42.3957 49.8301 43.665 49.2165C44.3367 48.8917 44.6137 48.6467 46.9539 46.307C49.3156 43.9458 49.5259 43.7075 49.7274 43.1652C50.2984 41.6283 49.96 40.0396 48.8285 38.9443C48.5502 38.675 46.2269 37.2844 41.9535 34.8294C38.4035 32.7901 35.3669 31.0699 35.2055 31.0069C34.2374 30.629 33.0069 30.6848 32.0799 31.1488C31.7515 31.3132 31.0608 31.9153 30.0105 32.9526C28.4048 34.5384 28.0282 34.8036 27.3817 34.8036C26.6641 34.8036 26.0967 34.4 23.372 31.9521C20.3755 29.2598 15.7521 24.2837 15.3475 23.3153C15.1655 22.8797 15.1675 22.3714 15.3529 21.9275C15.4388 21.722 16.1476 20.9199 17.0569 19.9991C18.0943 18.9489 18.6964 18.2582 18.8608 17.9298C19.3248 17.0027 19.3806 15.7723 19.0027 14.8042C18.9396 14.6428 17.2195 11.6062 15.1801 8.0562C12.7251 3.78287 11.3345 1.45961 11.0652 1.18128C10.0482 0.130554 8.53398 -0.260438 7.17049 0.175638ZM9.31822 1.90341C9.59733 2.04248 9.92505 2.29519 10.0464 2.46487C10.4353 3.00852 17.4157 15.1856 17.5355 15.5293C17.8166 16.3358 17.5237 17.3156 16.7917 18.0178L16.3981 18.3953L16.2524 18.1645C15.8082 17.4609 7.0988 2.25988 7.07191 2.14126C7.02027 1.913 7.65928 1.6508 8.26758 1.65071C8.65593 1.65051 8.95529 1.72259 9.31822 1.90341ZM10.5493 11.5246L15.1945 19.5894L14.732 20.0818C14.1123 20.7415 13.8715 21.1565 13.6843 21.8869C13.3458 23.2082 13.6985 24.0635 15.4214 26.0997C17.917 29.0492 20.9604 32.0926 23.9099 34.5882C25.9461 36.3111 26.8014 36.6637 28.1227 36.3252C28.8406 36.1413 29.263 35.8993 29.8991 35.3076L30.3628 34.8763L34.0555 36.9764C36.0865 38.1315 39.7824 40.2385 42.2686 41.6587L46.789 44.241L45.3004 45.7361C43.6638 47.3797 43.2312 47.7049 42.1751 48.0843C41.5161 48.3212 41.344 48.3399 39.802 48.3423C37.999 48.3451 37.3478 48.2485 35.45 47.697C27.8012 45.4736 18.087 38.2327 10.7406 29.2781C6.0509 23.5619 2.87444 17.6461 1.84013 12.7015C1.71505 12.1035 1.66547 11.4176 1.66361 10.2566C1.66126 8.82508 1.68659 8.56572 1.88835 7.9584C2.01333 7.58189 2.22858 7.07579 2.36658 6.83374C2.71063 6.23014 5.73785 3.17634 5.83242 3.33751C5.87183 3.40479 7.99443 7.08889 10.5493 11.5246ZM34.4803 32.4741C34.8241 32.5939 47.0013 39.5742 47.5449 39.9631C47.998 40.2872 48.3593 41.0766 48.3591 41.7419C48.359 42.3522 48.0968 42.9892 47.8674 42.9372C47.7886 42.9193 44.0838 40.8291 39.6343 38.2923L31.5444 33.68L31.9569 33.2524C32.6966 32.4855 33.6605 32.1882 34.4803 32.4741Z" fill="#3E4A60"/>
</svg>
