<svg width="54" height="50" viewBox="0 0 54 50" fill="none" xmlns="http://www.w3.org/2000/svg">
<path fill-rule="evenodd" clip-rule="evenodd" d="M5.43429 0.139953C5.00499 0.326923 4.48195 0.951117 4.40333 1.37013C4.36742 1.56204 4.35744 3.17212 4.38121 4.94808C4.42906 8.51471 4.4695 8.79727 5.12333 10.1322C5.59317 11.0914 6.30802 11.9535 7.18555 12.619C7.86418 13.1336 7.91615 13.2024 8.0847 13.8096C8.32034 14.6592 8.78401 15.5873 9.23739 16.1168C9.43887 16.3521 9.60371 16.5721 9.60371 16.6056C9.60371 16.639 8.89452 16.6664 8.02769 16.6664C6.1513 16.6664 5.48338 16.7743 4.47063 17.2414C2.72636 18.0459 1.54044 19.4814 1.05629 21.3747C0.866645 22.1159 0.857178 22.5941 0.857178 31.3918V40.6306L1.10105 40.9142C1.44289 41.3116 2.02078 41.3116 2.36261 40.9142L2.60648 40.6306V31.5953C2.60648 25.9562 2.64548 22.3543 2.71021 22.0131C3.04175 20.2647 4.46013 18.8431 6.19627 18.5191C6.50116 18.4622 8.33917 18.4157 10.2809 18.4157H13.8111L14.0947 18.1718C14.3066 17.9896 14.3783 17.8341 14.3783 17.5572C14.3783 17.0045 14.0466 16.7095 13.2732 16.5743C11.4732 16.2594 10.0512 14.8387 9.71618 13.0202C9.65434 12.6844 9.60371 11.3994 9.60371 10.1647V7.91984H11.4078C13.4532 7.91984 13.8066 7.83814 14.0232 7.3151C14.1784 6.94054 14.0293 6.4391 13.7124 6.26952C13.4147 6.11023 8.45905 6.14769 8.2443 6.31079C7.91862 6.55826 7.85441 6.98849 7.85441 8.92425V10.8414L7.49858 10.4966C7.01093 10.0239 6.43345 8.88649 6.25605 8.04919C6.14904 7.54456 6.10819 6.58481 6.10685 4.54985L6.1051 1.74582H11.6567C15.3121 1.74582 17.3945 1.78461 17.7535 1.85952C18.7549 2.06831 19.5721 2.53846 20.4511 3.41126C20.899 3.8561 21.382 4.24928 21.5243 4.28499C22.0705 4.42215 22.6667 3.79477 22.5253 3.2316C22.3989 2.7279 20.7971 1.24294 19.8938 0.79193C18.3141 0.00330072 18.2377 -0.00400521 11.6195 0.000522413C6.99745 0.00371233 5.67868 0.0334506 5.43429 0.139953ZM37.7486 0.167221C36.0106 0.539618 34.4524 1.39925 33.2451 2.65165C32.4586 3.46744 32.37 3.78829 32.7944 4.28169C32.9765 4.49346 33.1321 4.56529 33.4085 4.56529C33.7271 4.56529 33.8833 4.46465 34.528 3.84385C35.424 2.98134 36.2269 2.4795 37.3364 2.08889C38.1371 1.80694 38.2151 1.79932 40.3195 1.7983C42.2953 1.79737 42.5465 1.81785 43.2522 2.03723C44.434 2.40459 45.2631 2.91507 46.1905 3.84622C46.7958 4.45405 47.1334 4.90043 47.4418 5.50168C48.2244 7.02615 48.2218 7.00598 48.2672 12.113L48.3078 16.6664H46.4915H44.6753L45.0972 16.1871C45.3292 15.9234 45.659 15.4235 45.83 15.0763C46.4277 13.8621 46.4677 13.5842 46.5177 10.3012C46.543 8.63963 46.5342 7.12298 46.4981 6.93076C46.4621 6.73855 46.3334 6.48891 46.2121 6.37592C46.0003 6.17866 45.847 6.17053 42.3246 6.17053H38.6575L38.4337 6.40865C38.115 6.74801 38.1339 7.29791 38.4754 7.61896L38.7408 7.86839L41.7682 7.89988L44.7957 7.93126L44.7936 10.0608C44.7925 11.2319 44.7493 12.4822 44.6977 12.8391C44.573 13.7018 44.0969 14.69 43.4971 15.3312C42.9412 15.9255 41.8473 16.5006 41.0636 16.6107C40.3981 16.7041 40.0211 17.0365 40.0211 17.53C40.0211 17.781 40.097 17.9819 40.2499 18.135C40.4578 18.3432 40.6058 18.369 41.8664 18.4157L43.254 18.4671L41.5573 21.5027C39.7234 24.7835 39.6431 25.0032 40.1091 25.469C40.4569 25.8169 40.9233 25.8049 41.2792 25.4386C41.4305 25.2831 42.3878 23.6407 43.4065 21.789L45.2587 18.4223L46.5816 18.419C48.6191 18.4139 49.5179 18.7165 50.5351 19.7498C51.099 20.3227 51.5093 21.0921 51.6781 21.8936C51.7576 22.2713 51.7929 25.2353 51.7929 31.5348V40.6306L52.0368 40.9142C52.3786 41.3116 52.9565 41.3116 53.2983 40.9142L53.5422 40.6306L53.5404 31.4526C53.5384 21.2887 53.5513 21.5062 52.8723 20.0767C52.46 19.2084 51.2313 17.8835 50.488 17.5055L50.0577 17.2868L50.0189 12.3204C49.9827 7.68677 49.966 7.30563 49.7697 6.63359C49.2851 4.97494 48.5903 3.73406 47.5558 2.67943C46.1994 1.29676 44.5787 0.438672 42.693 0.104658C41.7777 -0.0574105 38.6103 -0.0173822 37.7486 0.167221ZM16.9096 6.24318C16.5252 6.39156 16.1497 6.75058 15.9738 7.1379C15.7977 7.52573 15.7824 7.87467 15.7836 11.4699C15.7851 16.1047 15.8373 16.5422 16.5621 18.0041C16.9496 18.7855 17.2034 19.137 17.8271 19.7559C18.2563 20.1818 18.8274 20.6786 19.0963 20.86C19.369 21.044 19.5856 21.2703 19.5863 21.3719C19.5883 21.662 20.2718 23.15 20.6657 23.7221C20.8637 24.0096 21.277 24.5021 21.5842 24.8168L22.1427 25.3888L20.1693 25.4394C18.7047 25.4769 18.05 25.5357 17.6299 25.6672C15.9376 26.197 14.5718 27.3363 13.8504 28.8199C13.1222 30.3176 13.1538 29.8023 13.1538 40.1622V49.5094L13.4425 49.7577C13.8115 50.0752 14.2453 50.0752 14.6143 49.7578L14.9031 49.5095L14.9545 40.008C15.0008 31.4579 15.0232 30.4639 15.1773 30.0809C15.7982 28.5389 17.1098 27.4949 18.7104 27.2683C19.669 27.1326 34.7304 27.1326 35.689 27.2683C37.2896 27.4949 38.6012 28.5389 39.2221 30.0809C39.3762 30.4639 39.3985 31.4579 39.4448 40.008L39.4963 49.5095L39.785 49.7578C40.154 50.0752 40.5879 50.0752 40.9569 49.7577L41.2456 49.5094V40.1622C41.2456 29.8023 41.2772 30.3176 40.549 28.8199C39.8275 27.3363 38.4617 26.197 36.7694 25.6672C36.3494 25.5357 35.6946 25.4769 34.23 25.4394L32.2566 25.3888L32.8152 24.8168C33.1223 24.5021 33.5357 24.0096 33.7337 23.7221C34.1276 23.15 34.811 21.662 34.8131 21.3719C34.8138 21.2703 35.0304 21.044 35.3031 20.86C35.572 20.6786 36.1431 20.1818 36.5723 19.7559C37.5464 18.7893 38.2395 17.4906 38.4682 16.2033C38.6678 15.0799 38.6637 12.7491 38.4605 11.7486C38.0425 9.69138 36.5962 7.7943 34.7673 6.90421C33.2632 6.17218 33.9795 6.22404 25.0902 6.20285C20.6758 6.19225 16.9945 6.21046 16.9096 6.24318ZM32.9242 8.06287C34.7985 8.56194 36.4219 10.3051 36.7618 12.1834C36.9228 13.073 36.8975 15.2603 36.7174 16.0243C36.5248 16.8411 36.0496 17.786 35.5574 18.3312L35.1745 18.7553L35.123 15.3522L35.0716 11.9492L34.8221 11.6838L34.5726 11.4185H27.1997H19.8268L19.5772 11.6838L19.3278 11.9492L19.2764 15.3522L19.2249 18.7553L18.842 18.3312C18.6315 18.098 18.3185 17.6285 18.1465 17.2879C17.5743 16.1542 17.5302 15.7526 17.5286 11.65L17.527 7.91984L24.9616 7.92108C30.9177 7.922 32.5011 7.9502 32.9242 8.06287ZM33.3468 16.795C33.2962 20.7118 33.2691 20.9209 32.6557 22.1177C32.0947 23.2124 31.0657 24.2417 29.9807 24.7936C28.606 25.4928 26.7947 25.6192 25.3088 25.12C24.2019 24.748 23.5699 24.3406 22.7552 23.4735C22.0178 22.6889 21.6188 22.009 21.3098 21.0106C21.1149 20.381 21.0918 20.0004 21.0516 16.7436L21.0074 13.1678H27.2005H33.3935L33.3468 16.795ZM10.8306 20.4658C10.6651 20.6312 10.5298 20.8646 10.5298 20.9844C10.5298 21.1043 10.7396 22.0455 10.9962 23.076C11.3787 24.6135 11.509 24.9914 11.7221 25.1814C12.0269 25.453 12.4469 25.4796 12.7773 25.2482C13.2183 24.9393 13.2286 24.6911 12.8598 23.25L12.518 21.9143H14.0826C15.4853 21.9143 15.6738 21.8933 15.9057 21.7109C16.0481 21.5989 16.186 21.3944 16.2124 21.2565C16.2825 20.8898 16.0332 20.3846 15.7242 20.2671C15.5765 20.211 14.4826 20.165 13.2935 20.165H11.1314L10.8306 20.4658ZM6.66858 25.5574C6.49736 25.6315 6.30061 25.8167 6.23126 25.969C6.04552 26.3765 6.05221 40.3773 6.23825 40.7451C6.51351 41.2892 7.22424 41.3826 7.64572 40.9302C7.85132 40.7096 7.85441 40.5976 7.85441 33.3348V25.9633L7.62288 25.7514C7.29936 25.4553 7.03059 25.4007 6.66858 25.5574ZM47.1624 25.4856C47.0775 25.5166 46.9039 25.6368 46.7765 25.7527L46.545 25.9633V33.3348C46.545 40.5976 46.5481 40.7096 46.7537 40.9302C47.1751 41.3826 47.8859 41.2892 48.1611 40.7451C48.2623 40.5451 48.2916 38.8986 48.2927 33.3568C48.2944 25.5041 48.3144 25.7535 47.6646 25.5269C47.4847 25.4643 47.3328 25.4166 47.3271 25.421C47.3214 25.4255 47.2473 25.4546 47.1624 25.4856ZM24.0019 29.2123C23.8364 29.3778 23.7014 29.5977 23.7018 29.7011C23.7022 29.8045 23.908 30.6763 24.1591 31.6384L24.6157 33.3877L24.1482 38.3567C23.8911 41.0897 23.7091 43.4385 23.7437 43.5764C23.8168 43.8676 26.6128 46.376 26.9682 46.4691C27.0956 46.5025 27.3039 46.5025 27.4312 46.4691C27.786 46.3761 30.5825 43.8677 30.6555 43.5769C30.6901 43.4393 30.5197 41.0985 30.2768 38.3751L29.8353 33.4234L30.2668 31.7468C30.5041 30.8246 30.6983 29.9294 30.6983 29.7573C30.6983 29.3092 30.165 28.869 29.7281 28.9564C29.1908 29.0638 29.0567 29.3095 28.651 30.9296L28.2673 32.4616H27.1977H26.1283L25.7546 30.9271C25.4398 29.6347 25.3367 29.3547 25.1011 29.1521C24.7237 28.8274 24.3672 28.8469 24.0019 29.2123ZM18.7058 34.515L18.4531 34.7675V42.1342V49.501L18.7058 49.7535C19.0328 50.0806 19.485 50.0823 19.8623 49.7578L20.151 49.5094V42.1514V34.7934L19.9016 34.5279C19.569 34.1739 19.0523 34.1683 18.7058 34.515ZM28.1264 34.3395C28.1267 34.382 28.3114 36.3152 28.5368 38.6356C28.7621 40.956 28.947 42.8869 28.9478 42.9266C28.9485 42.9662 28.5554 43.33 28.0743 43.7352L27.1997 44.4716L26.325 43.7352C25.844 43.33 25.4504 42.979 25.4504 42.9552C25.4504 42.9313 25.6124 41.0768 25.8105 38.8341C26.0086 36.5915 26.1707 34.6453 26.1707 34.5094C26.1707 34.2659 26.1848 34.2623 27.1482 34.2623C27.6859 34.2623 28.1261 34.297 28.1264 34.3395ZM34.4978 34.5279L34.2484 34.7934V42.1514V49.5094L34.5371 49.7578C34.9143 50.0823 35.3666 50.0806 35.6936 49.7535L35.9462 49.501V42.1342V34.7675L35.6936 34.515C35.347 34.1683 34.8304 34.1739 34.4978 34.5279Z" fill="#F95633"/>
</svg>
