<svg width="68" height="50" viewBox="0 0 68 50" fill="none" xmlns="http://www.w3.org/2000/svg">
<path fill-rule="evenodd" clip-rule="evenodd" d="M28.6729 0.271691C28.4016 0.543059 28.4013 0.54543 28.4013 2.60073C28.4013 4.64149 28.4035 4.66035 28.6659 4.92266L28.9304 5.18724H32.9862H37.0422L37.0038 7.36961C36.9664 9.49109 36.9574 9.56728 36.6768 10.1024C36.2498 10.9169 35.9244 11.2535 35.1694 11.6605C34.5476 11.9958 34.4132 12.0265 33.5743 12.0244C32.7959 12.0223 32.5756 11.979 32.1079 11.736C31.2971 11.3147 30.9567 10.9866 30.5623 10.2467C30.2502 9.66104 30.2004 9.45024 30.1386 8.45206C30.0759 7.44031 30.0418 7.29945 29.8157 7.11624C29.4569 6.8258 28.9865 6.85543 28.6523 7.18963C28.3804 7.46154 28.3754 7.49279 28.4271 8.6176C28.4861 9.90579 28.7108 10.6445 29.3182 11.547L29.6797 12.0842L29.3908 12.1492C28.0141 12.4582 27.457 12.7349 26.5847 13.5425C25.9505 14.1297 25.9253 14.1415 25.5247 14.0411C25.299 13.9846 24.9842 13.9092 24.8254 13.8735L24.5364 13.8085L24.8979 13.2714C25.0966 12.976 25.3721 12.4547 25.5099 12.1131C25.7528 11.5109 25.7605 11.3926 25.7607 8.25322L25.7609 5.0147L25.3584 4.20017C24.8736 3.21913 24.2496 2.60817 23.2477 2.13355L22.5278 1.79245H20.6362H18.7446L17.9303 2.19498C16.9493 2.67973 16.3384 3.30373 15.8637 4.30567L15.5227 5.02559V8.25872C15.5227 11.3936 15.5303 11.5107 15.7734 12.1131C15.9114 12.4547 16.187 12.976 16.3857 13.2714L16.7471 13.8085L16.4582 13.8676C14.317 14.3046 12.8092 15.6194 12.2307 17.554C12.1553 17.8058 12.0893 18.0115 12.0839 18.0109C12.0784 18.0103 11.5163 17.8411 10.8346 17.6348C10.153 17.4285 9.48391 17.2593 9.3479 17.2587C8.99678 17.2572 8.57141 17.7196 8.57141 18.103C8.57141 18.7446 8.70225 18.8037 12.9361 20.0711C15.1293 20.7276 16.9422 21.283 16.965 21.3052C16.9877 21.3275 16.6603 22.7288 16.2375 24.4194C15.8147 26.1101 15.4688 27.6393 15.4688 27.8179C15.4688 28.6307 16.6518 28.8889 17.0202 28.1564C17.0987 28.0006 17.3997 26.9114 17.6892 25.7362C18.3013 23.2508 17.9897 23.465 20.0899 24.0861C20.8236 24.303 21.7693 24.5345 22.1914 24.6005C23.2736 24.7695 25.0083 24.6536 26.3336 24.3238C27.9183 23.9294 28.2101 23.9504 29.3417 24.5396C30.7318 25.2634 30.7187 25.2248 29.7872 25.8517C28.665 26.607 27.5425 27.1927 26.3351 27.653C24.7089 28.2731 24.1549 28.9293 24.1482 30.244C24.1421 31.4447 24.7307 32.3483 25.9386 32.9921C26.4953 33.2888 26.7679 33.3626 27.4518 33.4023C28.5589 33.4663 28.9556 33.3259 31.0376 32.1324L32.7366 31.1585L33.6117 31.4349C35.7536 32.1115 38.0321 31.967 39.8506 31.0393L40.2686 30.826L41.5287 31.5497C42.9472 32.3643 43.28 32.4314 43.668 31.9803C43.9579 31.6433 43.9893 31.3066 43.7614 30.9811C43.5233 30.6412 40.6473 29.0046 40.289 29.0051C40.1227 29.0053 39.817 29.109 39.6095 29.2355C38.9817 29.6183 37.9686 29.953 37.0604 30.0772C36.0126 30.2208 34.958 30.094 33.8545 29.6921C32.5667 29.2231 32.7345 29.1847 30.4874 30.4648C28.387 31.6614 27.9824 31.8061 27.1647 31.6527C26.6106 31.5487 25.8148 30.768 25.8148 30.3283C25.8148 29.8219 26.0966 29.593 27.3012 29.1213C29.2967 28.3397 30.8919 27.3312 33.0444 25.4904C33.7804 24.8609 34.6418 24.2245 34.9585 24.0762C35.7009 23.7286 36.5435 23.7126 37.8313 24.0214C39.9341 24.5258 42.0003 24.5892 43.9902 24.2103C44.4731 24.1183 46.1359 23.6802 47.6853 23.2369C49.2347 22.7934 50.5672 22.4306 50.6466 22.4306C50.8403 22.4306 53.5459 33.2059 53.366 33.2609C53.2981 33.2817 52.2904 33.4271 51.1266 33.584L49.0106 33.8693L47.6738 33.1074C46.2069 32.2715 45.8328 32.1853 45.4479 32.595C45.1621 32.8993 45.1399 33.4578 45.4033 33.7197C45.5076 33.8233 46.2516 34.2848 47.0564 34.745C48.8578 35.775 49.0395 35.9517 49.0395 36.6734C49.0395 37.1576 48.9989 37.2491 48.637 37.5808C47.9178 38.2398 47.9477 38.2512 43.2198 35.5093C38.2528 32.6286 38.2076 32.606 37.8045 32.7992C37.6425 32.8768 37.4431 33.0798 37.3613 33.2504C37.0424 33.9157 37.1844 34.0293 41.2834 36.387C44.0289 37.9663 45.0855 38.6289 45.2358 38.8657C45.5055 39.2906 45.4413 40.0174 45.1025 40.3781C44.803 40.6969 44.2228 40.9003 43.8951 40.8014C43.7609 40.7609 41.9744 39.7631 39.9254 38.5843C37.8763 37.4054 36.0902 36.4409 35.9565 36.4409C35.6583 36.4409 35.0831 36.9936 35.0831 37.2802C35.0831 37.3953 35.1794 37.6119 35.297 37.7615C35.4147 37.9112 36.9303 38.8497 38.6649 39.8472C40.3996 40.8447 41.9764 41.8152 42.1691 42.0038C42.9614 42.7796 42.3523 44.0926 41.2002 44.0926C40.9299 44.0926 40.002 43.609 37.4779 42.1528C35.4971 41.01 34.0014 40.2129 33.8378 40.2129C33.4372 40.2129 33.1914 40.3753 33.0405 40.7396C32.7756 41.3792 32.9411 41.5184 36.2159 43.4121C38.2995 44.6169 39.2904 45.2501 39.4204 45.4597C39.9418 46.301 39.3259 47.4347 38.3486 47.433C38.1779 47.4327 37.4967 47.1246 36.7804 46.7238C35.7445 46.1442 35.5034 45.9627 35.4563 45.7274C35.3556 45.2243 34.8496 44.3122 34.5153 44.0309C34.0025 43.5994 33.377 43.3246 32.7639 43.2613C32.1991 43.203 32.196 43.2007 32.1281 42.7756C32.0294 42.1588 31.7146 41.6037 31.1993 41.1381C30.6512 40.643 30.2221 40.4543 29.4331 40.3616C28.9062 40.2996 28.8324 40.2617 28.8324 40.0525C28.8324 39.366 28.2731 38.4611 27.5392 37.9606C26.8208 37.4706 25.9782 37.3301 25.1459 37.5615C24.7843 37.662 24.4569 37.7056 24.4183 37.6584C24.3796 37.6112 24.2143 37.3898 24.0508 37.1666C23.1773 35.9739 21.3967 35.705 20.0458 36.5617L19.5441 36.8798L17.4526 36.0557C16.3022 35.6023 15.3599 35.2004 15.3585 35.1626C15.3571 35.1248 15.5859 34.1616 15.8669 33.0223L16.3777 30.9508L16.1549 30.6513C15.9887 30.4277 15.8248 30.3437 15.5084 30.3198C14.8082 30.267 14.72 30.4482 13.9701 33.4772C13.6032 34.959 13.2569 36.3466 13.2003 36.5606L13.0976 36.9499L11.3003 36.5876C10.3118 36.3884 9.41246 36.2253 9.30178 36.2253C8.98989 36.2253 8.57141 36.7097 8.57141 37.0707C8.57141 37.738 8.75462 37.8225 11.3177 38.3376C12.6162 38.5984 13.7684 38.8119 13.8781 38.8119C14.2338 38.8119 14.5593 38.3573 14.7091 37.6513C14.7874 37.2819 14.9062 36.9797 14.9729 36.9797C15.1271 36.9797 18.4066 38.261 18.5085 38.361C18.5503 38.4021 18.3708 38.8042 18.1099 39.2545C17.5473 40.2249 17.3575 40.8959 17.4423 41.6125C17.6097 43.0264 18.6972 44.0966 20.1381 44.266C20.7249 44.3349 20.7265 44.3362 20.7947 44.7627C20.8926 45.3751 21.2073 45.9341 21.7093 46.3876C22.5109 47.1119 23.5993 47.3691 24.5754 47.0651L25.1143 46.8973L25.3268 47.1924C26.1685 48.3608 27.5187 48.8621 28.7443 48.4611C29.2929 48.2817 29.3187 48.2821 29.4237 48.4738C29.4838 48.5833 29.7528 48.8933 30.0215 49.1627C30.9125 50.0558 32.2643 50.2542 33.4248 49.6623C34.035 49.3509 34.3979 48.9858 34.8098 48.2685L35.104 47.7561L35.7671 48.1414C37.4671 49.129 38.1736 49.3087 39.1925 49.0124C40.3285 48.6822 41.1992 47.6316 41.3052 46.4636C41.3605 45.8537 41.3798 45.8169 41.6452 45.8159C42.06 45.8144 42.9563 45.3635 43.3732 44.9465C43.8507 44.469 44.2413 43.6142 44.2426 43.0439C44.2436 42.6346 44.274 42.5813 44.54 42.5223C45.1996 42.3763 45.5405 42.2346 45.9565 41.9332C46.4535 41.5731 47.0006 40.6912 47.1031 40.0845C47.172 39.6766 47.1757 39.674 47.6822 39.674C48.5933 39.674 49.28 39.3936 49.9087 38.765C50.7159 37.9578 50.997 36.9294 50.7015 35.865C50.6383 35.6371 50.6027 35.4345 50.6225 35.4147C50.669 35.3682 53.8636 34.9244 53.8983 34.9596C53.9128 34.9741 54.0237 35.374 54.1448 35.8481C54.3673 36.7184 54.6254 37.0875 55.0117 37.0875C55.1123 37.0875 56.2568 36.874 57.5552 36.6132C60.1184 36.0982 60.3016 36.0137 60.3016 35.3464C60.3016 34.9853 59.8831 34.501 59.5712 34.501C59.4605 34.501 58.5612 34.6641 57.5727 34.8632L55.7754 35.2255L55.6726 34.8363C55.3533 33.6273 51.8954 19.7239 51.8954 19.6485C51.8954 19.5988 53.7019 19.0159 55.9099 18.3531C60.1658 17.0755 60.3016 17.0145 60.3016 16.3786C60.3016 15.9993 59.8778 15.5333 59.5328 15.5333C59.353 15.5333 54.9837 16.7856 54.0779 17.0968C54.0002 17.1234 53.8232 16.9062 53.6599 16.5836C53.0384 15.3575 51.4237 14.1409 50.1784 13.9606C49.9077 13.9213 49.6506 13.8689 49.6071 13.8439C49.5637 13.8189 49.6939 13.5575 49.8964 13.263C50.391 12.5439 50.6945 11.6954 50.7779 10.7984C50.8429 10.0989 50.8309 10.0403 50.5678 9.77722C50.2108 9.42028 49.7137 9.40681 49.3756 9.74489C49.1934 9.92713 49.1102 10.1697 49.0577 10.6718C48.9754 11.4597 48.482 12.4839 47.9824 12.9044C47.8059 13.0528 47.414 13.303 47.1111 13.4603C46.6434 13.7033 46.4231 13.7466 45.6447 13.7487C44.8058 13.7508 44.6714 13.7201 44.0496 13.3849C43.2943 12.9776 42.9684 12.6406 42.5429 11.8267C42.2666 11.2983 42.2536 11.1966 42.2158 9.2764L42.1765 7.2765L42.6051 6.99284C43.2067 6.59463 43.7253 6.39428 44.5049 6.25849C45.4725 6.08993 46.2429 6.26302 48.1646 7.08046C49.0607 7.46165 49.9052 7.77354 50.0412 7.77364C50.1773 7.77364 50.4141 7.64831 50.5674 7.49506C50.8364 7.22606 50.8442 7.18187 50.7908 6.22874C50.6457 3.64008 49.0842 2.02179 46.4688 1.74967C45.7504 1.67498 45.219 1.5089 43.546 0.836304C42.4214 0.384204 41.4015 0.0142258 41.2799 0.0142258C41.1581 0.0142258 40.9595 0.0836304 40.8384 0.168446C40.568 0.3578 40.0007 1.56796 39.776 2.43477C39.4469 3.70453 39.6238 5.48243 40.1836 6.52792C40.3957 6.9243 40.4235 7.17853 40.4786 9.22866C40.5459 11.7346 40.6417 12.1615 41.3845 13.2652C41.581 13.5573 41.7146 13.8233 41.6815 13.8565C41.6483 13.8896 41.4768 13.9167 41.3001 13.9167C41.0691 13.9167 40.8363 13.7832 40.4702 13.4408C39.7527 12.7697 38.9532 12.3872 37.7579 12.1432L37.469 12.0842L37.8304 11.547C38.0292 11.2516 38.3046 10.7303 38.4425 10.3887C38.6854 9.7866 38.693 9.66805 38.6932 6.53438L38.6935 3.30125L38.3524 2.58134C37.8778 1.57982 37.2668 0.955392 36.2863 0.470637L35.4723 0.0681114L32.2084 0.0340555L28.9446 0L28.6729 0.271691ZM35.2323 1.86961C35.7143 2.01209 36.8075 3.00067 36.8075 3.29424C36.8075 3.44361 36.4263 3.4629 33.4666 3.4629H30.1256V2.60073V1.73856H32.4572C33.9728 1.73856 34.9439 1.78448 35.2323 1.86961ZM46.1762 3.45644C47.221 3.56453 47.6622 3.73772 48.2137 4.25632C48.5623 4.58405 49.0472 5.37703 48.9553 5.46896C48.9304 5.49396 48.4234 5.31905 47.8286 5.08044C46.3224 4.47617 45.2971 4.34092 44.055 4.58265C43.5131 4.68815 42.7937 4.92407 42.3635 5.13745C41.8039 5.41496 41.5938 5.47499 41.5314 5.37498C41.2598 4.93969 41.2902 3.04572 41.5797 2.3645L41.7487 1.96661L43.4829 2.66195C44.9169 3.23691 45.3832 3.37442 46.1762 3.45644ZM22.2997 3.59395C22.7818 3.73643 23.8749 4.72501 23.8749 5.01858C23.8749 5.16784 23.5038 5.18724 20.6418 5.18724C17.7798 5.18724 17.4086 5.16784 17.4086 5.01858C17.4086 4.75648 18.4964 3.73653 18.9174 3.60376C19.4382 3.43963 21.7546 3.43294 22.2997 3.59395ZM24.0713 9.09395C24.0339 11.2154 24.0248 11.2916 23.7443 11.8267C23.3173 12.6412 22.9918 12.9778 22.2369 13.3849C21.6151 13.7201 21.4807 13.7508 20.6418 13.7487C19.8634 13.7466 19.6431 13.7033 19.1753 13.4603C18.364 13.0387 18.0255 12.7122 17.6152 11.9554L17.247 11.2763L17.2105 9.09395L17.1739 6.91158H20.6418H24.1096L24.0713 9.09395ZM34.4365 14.3726C34.4365 14.9845 34.4326 14.9921 34.0054 15.21L33.5743 15.4299L33.1432 15.21C32.716 14.9921 32.7122 14.9845 32.7122 14.3726V13.7551H33.5743H34.4365V14.3726ZM30.9878 14.8434C30.9878 15.857 30.9944 15.8841 31.3157 16.1841L31.6435 16.4904L31.3006 19.5686L30.9576 22.6467L31.3617 23.2552C31.8211 23.9472 31.8086 23.9463 30.4977 23.1929C29.2147 22.4556 28.5874 22.2793 27.5101 22.3531L26.6621 22.4112L26.6967 19.3764C26.7306 16.3987 26.7362 16.3314 26.9979 15.8027C27.4586 14.8717 28.3513 14.1429 29.3174 13.9092C29.4952 13.8662 29.9438 13.8261 30.3142 13.8199L30.9878 13.8089V14.8434ZM38.6332 14.2453C39.3712 14.6387 39.6974 14.9761 40.1273 15.7912L40.4178 16.3416L40.4518 19.5288L40.4858 22.716L39.8321 22.639C39.4724 22.5966 38.7054 22.4619 38.1275 22.3397C37.5497 22.2175 36.8594 22.0788 36.5936 22.0315L36.1104 21.9454L35.8082 19.2174L35.5061 16.4895L35.8334 16.1837C36.1548 15.8835 36.1608 15.8584 36.1608 14.8282V13.7785L37.0649 13.8349C37.8157 13.8818 38.0819 13.9514 38.6332 14.2453ZM18.0553 16.5678C18.0553 17.5859 18.0606 17.6071 18.3898 17.9147L18.7243 18.2272L18.6477 19.0932C18.5827 19.8272 18.5441 19.9507 18.394 19.9043C18.2966 19.8741 17.635 19.675 16.9237 19.4618C13.6619 18.4841 13.8521 18.5559 13.8533 18.3018C13.855 17.9162 14.3378 16.9947 14.7588 16.5738C15.4649 15.8676 16.2403 15.5563 17.3278 15.5425L18.0553 15.5333V16.5678ZM21.504 16.1239C21.504 16.7043 21.4966 16.7181 21.0729 16.9343L20.6418 17.1543L20.2107 16.9343C19.7869 16.7181 19.7796 16.7043 19.7796 16.1239V15.5333H20.6418H21.504V16.1239ZM25.0591 15.7044C25.1186 15.7639 25.1181 15.9735 25.0577 16.2339C25.0027 16.4709 24.9566 18.0531 24.9552 19.7498L24.9526 22.8348L24.6158 22.9021C24.4306 22.9392 24.0004 22.9695 23.6598 22.9695H23.0406L22.9772 22.4576C22.9424 22.176 22.8322 21.1108 22.7324 20.0903L22.5511 18.2348L22.8897 17.9186C23.2244 17.6058 23.2283 17.5903 23.2283 16.5539V15.5056L24.0944 15.5557C24.5708 15.5833 25.0049 15.6502 25.0591 15.7044ZM42.8315 16.7188L43.2198 17.8504L44.0012 18.2598L44.7825 18.6692V20.4827V22.2961L43.8395 22.4671C43.3209 22.561 42.742 22.6552 42.5532 22.6762L42.2098 22.7146L42.164 19.4203C42.1389 17.6084 42.0808 15.9884 42.035 15.8203C41.9599 15.5442 41.9756 15.5181 42.1975 15.5508C42.4046 15.5815 42.5042 15.765 42.8315 16.7188ZM46.8503 16.0824C46.6961 16.5648 46.612 16.6633 46.1597 16.8925L45.6447 17.1535L45.1297 16.8925C44.6773 16.6633 44.5933 16.5648 44.4391 16.0824L44.2635 15.5333H45.6447H47.0259L46.8503 16.0824ZM50.5837 15.9011C51.2021 16.2145 51.8068 16.7738 52.0631 17.2694C52.1574 17.4517 52.219 17.6148 52.1998 17.6318C52.1806 17.6487 51.7292 17.8019 51.197 17.972C49.8982 18.3872 49.8235 18.5133 50.1305 19.7733L50.3527 20.6859L48.5644 21.1953C47.581 21.4755 46.7157 21.7276 46.6416 21.7559C46.5376 21.7953 46.5069 21.4487 46.5069 20.2381V18.6692L47.2882 18.2598L48.0695 17.8504L48.4097 16.8804C48.5969 16.347 48.776 15.8185 48.8079 15.7061C48.8585 15.5278 48.9398 15.5095 49.4498 15.5622C49.7709 15.5954 50.2812 15.7478 50.5837 15.9011ZM34.1002 19.4939C34.2323 20.7238 34.3637 21.8756 34.3924 22.0534C34.4401 22.3494 34.3986 22.4018 33.9015 22.6731C33.603 22.8361 33.3352 22.9695 33.3064 22.9695C33.2776 22.9695 33.138 22.7877 32.996 22.5653L32.7379 22.1612L33.0131 19.7094L33.2882 17.2576H33.5741H33.86L34.1002 19.4939ZM21.0874 20.8141C21.1843 21.7921 21.2552 22.6021 21.2451 22.6142C21.235 22.6262 20.9738 22.5619 20.6648 22.4714C20.0127 22.2802 20.0407 22.4047 20.22 20.4971C20.3632 18.9729 20.3675 18.9587 20.6683 19.0014C20.9008 19.0343 20.9188 19.1125 21.0874 20.8141ZM22.6066 38.1403C22.8128 38.3467 22.9412 38.6058 22.9799 38.8941C23.0331 39.2908 22.965 39.4625 22.2771 40.665C21.3274 42.3254 21.1236 42.53 20.4197 42.53C19.9669 42.53 19.8413 42.4797 19.5392 42.1777C19.2391 41.8775 19.1873 41.7497 19.19 41.3155C19.1927 40.8812 19.3055 40.6141 19.9518 39.5124C20.8293 38.0167 21.1977 37.6825 21.8711 37.7708C22.1418 37.8062 22.4043 37.9382 22.6066 38.1403ZM26.4026 39.2878C26.8656 39.4812 27.1327 39.8864 27.1466 40.4161C27.1556 40.7558 26.9481 41.1964 25.9933 42.8657C25.353 43.9851 24.7112 45.0078 24.5671 45.1386C23.987 45.6649 22.9711 45.496 22.6188 44.8146C22.3145 44.2262 22.4715 43.7529 23.6277 41.7756C25.0347 39.3688 24.9552 39.4846 25.328 39.3006C25.737 39.0986 25.944 39.0963 26.4026 39.2878ZM29.7639 42.2212C29.9681 42.3181 30.2111 42.5444 30.304 42.7241C30.5869 43.271 30.4398 43.8045 29.6143 45.2242C28.8335 46.567 28.4898 46.8947 27.8625 46.8942C27.4405 46.8937 26.8965 46.4994 26.7133 46.0611C26.4939 45.5359 26.5779 45.2818 27.4914 43.7089C28.4402 42.0748 28.8669 41.7955 29.7639 42.2212ZM33.3789 45.3563C33.8421 45.8196 33.8845 46.3275 33.5198 47.0482C33.0661 47.9448 32.7031 48.2418 32.0606 48.2418C31.6138 48.2418 31.4794 48.1904 31.2022 47.9131C30.7473 47.4582 30.6785 46.9408 30.988 46.3014C31.2798 45.6989 31.6981 45.1845 32.0028 45.0537C32.4043 44.8814 33.045 45.0224 33.3789 45.3563Z" fill="#F95633"/>
</svg>
