<svg width="50" height="50" viewBox="0 0 50 50" fill="none" xmlns="http://www.w3.org/2000/svg">
<path fill-rule="evenodd" clip-rule="evenodd" d="M6.83651 0.225961L6.62422 0.452019V6.23628V12.0204L3.41771 16.1413C1.65416 18.4079 0.159343 20.3596 0.0959681 20.4786C0.00857194 20.6427 -0.0130086 23.9524 0.00681423 34.1496L0.0328866 47.6041L0.303571 48.1551C0.619369 48.798 1.27323 49.4378 1.91986 49.7366L2.37647 49.9477L12.8829 49.9737L23.3893 49.9999L23.6487 49.7958C24.0067 49.5142 24.0078 49.0148 23.6509 48.7342C23.3944 48.5324 23.3603 48.5317 13.1291 48.5249C7.48373 48.5211 2.79021 48.4882 2.6992 48.4517C2.57831 48.4031 4.49908 47.0159 9.82175 43.3075C13.8303 40.5147 18.2975 37.3998 19.7491 36.3854C22.3498 34.568 22.3925 34.5429 22.6843 34.6643C24.2176 35.3021 25.1832 35.3233 26.4122 34.7462L26.8166 34.5563L36.7353 41.4706C44.0176 46.5473 46.6093 48.4027 46.4863 48.4516C46.3941 48.4881 41.8236 48.5211 36.3297 48.5249L26.3405 48.5317L26.1009 48.7715C25.7948 49.0774 25.7954 49.4514 26.1026 49.7585L26.344 50L36.5755 49.9738L46.8069 49.9477L47.2635 49.7366C47.9102 49.4378 48.564 48.798 48.8798 48.1551L49.1505 47.6041L49.178 34.2261C49.1931 26.8682 49.1828 20.7551 49.1549 20.6413C49.1272 20.5277 48.0554 19.085 46.7731 17.4355L44.4418 14.4364L44.4901 13.7604C44.573 12.6017 44.0998 11.8156 43.0884 11.4316L42.608 11.2493L42.5827 5.84978C42.5576 0.463639 42.5569 0.449675 42.346 0.225082L42.1345 0H34.2375H26.3405L26.1009 0.239729C25.7953 0.545177 25.7953 0.919564 26.1009 1.22501L26.3405 1.46474H33.7175H41.0945V6.24956C41.0945 9.10239 41.0581 11.0344 41.0045 11.0344C40.955 11.0344 38.3953 10.6376 35.3164 10.1527C25.12 8.54676 26.0022 8.66433 25.4201 8.83356C24.7413 9.03081 24.1573 9.60928 23.9575 10.2819C23.8766 10.5541 23.8105 10.8348 23.8105 10.9057C23.8105 11.0103 23.0136 11.0344 19.5628 11.0344C15.4452 11.0344 15.3091 11.0403 15.1197 11.2297C14.8289 11.5205 14.8593 12.0431 15.1817 12.2967C15.4326 12.494 15.5397 12.4991 19.4783 12.4991C23.4377 12.4991 23.5176 12.5029 23.5176 12.6923C23.5176 12.8759 23.1824 15.0788 23.0678 15.6483L23.0138 15.9168H19.1814H15.3491L15.1367 16.1428C14.8363 16.4626 14.8563 16.9232 15.1817 17.1792C15.4317 17.3758 15.5439 17.3816 19.1195 17.3816H22.7999L22.5292 19.066C22.3802 19.9925 22.2561 20.7615 22.2533 20.7749C22.2505 20.7883 20.6958 20.7993 18.7986 20.7993H15.3491L15.1367 21.0253C14.8363 21.3451 14.8563 21.8057 15.1817 22.0616C15.4305 22.2574 15.5482 22.2641 18.7525 22.2641C21.8618 22.2641 22.063 22.2746 22.0168 22.4349C21.9896 22.5289 21.6524 24.6272 21.2671 27.0977C20.882 29.5682 20.5525 31.605 20.5351 31.6239C20.5175 31.6427 18.9294 30.724 17.0058 29.5824C15.0823 28.4407 12.2891 26.7829 10.7987 25.8985L8.08896 24.2904V12.8775V1.46474H15.7413C23.3351 1.46474 23.3955 1.46318 23.6509 1.26231C24.0067 0.98245 24.0067 0.48229 23.6509 0.202427C23.3952 0.00126944 23.3411 0 15.2212 0H7.0489L6.83651 0.225961ZM34.5519 11.524C43.4919 12.9233 43.0503 12.82 43.0452 13.5109C43.0428 13.8409 41.4295 24.1139 41.3728 24.1606C41.1462 24.3473 39.5928 25.1891 39.5513 25.1477C39.5207 25.1171 39.7513 23.4682 40.0638 21.4834C40.6078 18.028 40.625 17.8641 40.4669 17.623C40.3761 17.4844 40.2495 17.3563 40.1855 17.3382C38.8094 16.9503 38.2298 16.2849 38.2446 15.1103C38.2572 14.0992 38.4197 14.1622 34.0213 13.4749C29.6276 12.7885 29.7745 12.7834 29.5069 13.6323C29.1846 14.6547 28.4525 15.2333 27.4809 15.2333C26.8227 15.2333 26.4912 15.3743 26.3607 15.7098C26.3059 15.8505 25.6661 19.7667 24.9389 24.4123C24.2118 29.058 23.5835 32.9786 23.5428 33.1249L23.4687 33.3907L22.712 32.9507C22.1244 32.609 21.9558 32.4622 21.9577 32.2942C21.9592 32.1752 22.7244 27.2452 23.6582 21.3386C25.3388 10.7083 25.3587 10.5971 25.6202 10.3722C25.8057 10.2127 25.9607 10.1603 26.1412 10.1965C26.2826 10.2247 30.0674 10.8221 34.5519 11.524ZM33.8129 14.9245L36.7357 15.3901L36.8455 15.922C37.0567 16.9444 37.772 17.9086 38.6528 18.3579C38.9849 18.5273 39.0523 18.6065 39.0119 18.7796C38.9845 18.8969 38.7068 20.6303 38.3946 22.6316L37.8272 26.2704L36.9146 26.815C36.4126 27.1145 35.9897 27.3447 35.9749 27.3263C35.96 27.3079 35.8941 27.0733 35.8284 26.8048C35.6499 26.0753 35.2704 25.4519 34.6372 24.8479C32.9945 23.2811 30.5115 23.2483 28.8781 24.7717C27.9364 25.6501 27.5115 26.6052 27.5079 27.8518C27.5043 29.1355 27.9207 30.1184 28.8336 30.9809L29.2667 31.3902L27.4906 32.4415C25.8146 33.4337 25.1297 33.7713 25.0184 33.6601C24.9919 33.6335 25.5662 29.8391 26.2948 25.2281C27.0234 20.6171 27.6193 16.8115 27.6191 16.7713C27.6189 16.7311 27.749 16.698 27.9081 16.698C28.7637 16.698 30.0732 15.8073 30.5563 14.8966C30.686 14.6521 30.8141 14.4537 30.8411 14.4555C30.868 14.4574 32.2053 14.6684 33.8129 14.9245ZM6.62422 18.9544C6.62422 22.8903 6.60811 23.3529 6.47306 23.3011C6.38996 23.2692 5.31279 22.6443 4.07948 21.9125L1.83706 20.582L2.15559 20.1576C3.4012 18.498 6.49132 14.5592 6.55098 14.555C6.59121 14.5521 6.62422 16.5318 6.62422 18.9544ZM45.8214 18.598C46.6544 19.6699 47.3133 20.5697 47.2852 20.5977C47.2049 20.6781 43.0984 23.1254 43.0769 23.1057C43.0539 23.0846 43.9984 17.0456 44.0775 16.7083C44.1098 16.5711 44.1684 16.5106 44.2195 16.5618C44.2674 16.6099 44.9882 17.5262 45.8214 18.598ZM32.2723 20.5873C32.058 20.8241 32.0633 21.4098 32.2816 21.6066C32.3755 21.6912 32.5722 21.7905 32.7186 21.827C32.9351 21.8811 33.0415 21.8365 33.29 21.588C33.5385 21.3395 33.5831 21.2331 33.529 21.0166C33.4924 20.8702 33.3932 20.6736 33.3086 20.5796C33.1004 20.3486 32.4842 20.3532 32.2723 20.5873ZM11.6818 28.123C16.7945 31.1575 20.9669 33.6707 20.9537 33.7079C20.9077 33.8382 1.59967 47.2464 1.52468 47.2C1.48288 47.1742 1.4488 41.5082 1.4488 34.609V22.0649L1.91742 22.3353C2.17522 22.4841 6.56915 25.0886 11.6818 28.123ZM47.654 47.1866C47.6093 47.2313 47.4664 47.1855 47.3363 47.0848C47.2063 46.9841 42.8814 43.9662 37.7255 40.3786C32.5697 36.791 28.3169 33.8256 28.2749 33.7888C28.2331 33.7521 28.7384 33.4013 29.3979 33.0093C30.6598 32.2593 41.6071 25.7224 45.4398 23.4303L47.6858 22.0871L47.7106 34.5962C47.7242 41.4762 47.6988 47.1419 47.654 47.1866ZM32.5669 25.2419C33.1511 25.4154 33.8913 26.0312 34.1683 26.5742C34.3968 27.0221 34.5633 27.8144 34.4888 28.0993C34.4535 28.234 33.8264 28.6611 32.5838 29.3963C30.4953 30.6321 30.6189 30.6104 29.8272 29.8806C28.4619 28.6222 28.763 26.3085 30.4018 25.4632C31.1777 25.0631 31.7632 25.0032 32.5669 25.2419Z" fill="#F95633"/>
</svg>
